<?xml version="1.0" encoding="UTF-8"?>
<svg width="75px" height="75px" viewBox="0 0 75 75" version="1.1" xmlns="http://www.w3.org/2000/svg" xmlns:xlink="http://www.w3.org/1999/xlink">
    <!-- Generator: Sketch 50.2 (55047) - http://www.bohemiancoding.com/sketch -->
    <title>network icon</title>
    <desc>Created with Sketch.</desc>
    <defs></defs>
    <g id="anasayfa" stroke="none" stroke-width="1" fill="none" fill-rule="evenodd">
        <g transform="translate(-281.000000, -2964.000000)" id="network">
            <g transform="translate(114.000000, 2956.000000)">
                <g id="başlık" transform="translate(41.000000, 9.000000)">
                    <g id="network-icon" transform="translate(127.000000, 0.000000)">
                        <path d="M73,36.4987165 C73,56.6579808 56.6579808,73 36.4987165,73 C16.3420192,73 0,56.6579808 0,36.4987165 C0,16.3394521 16.3420192,0 36.4987165,0 C56.6579808,0 73,16.3394521 73,36.4987165 Z" id="Stroke-1" stroke="#060E9F" stroke-width="1.75"></path>
                        <path d="M34.0515386,26.5707739 C31.8583351,27.1359294 30.1548256,28.172482 28.6805344,29.9200367 C29.3603754,30.1101582 29.810998,30.3263237 30.26683,30.3393457 C30.6471242,30.3523677 31.1706799,30.2455872 31.3920841,29.9877512 C32.2829102,28.9511986 33.0799651,27.8365139 34.0515386,26.5707739 Z M44.1866391,29.9382676 C42.9467759,28.1516468 40.5477968,26.7270381 39.0761104,26.797357 C39.8080465,27.701085 40.6650108,28.5709557 41.2849424,29.5866731 C41.777241,30.3940382 42.2434921,30.7065666 43.1186897,30.3028841 C43.4286555,30.1596419 43.7646689,30.0789054 44.1866391,29.9382676 Z M35.778491,27.3442817 C35.682115,27.2791716 35.5831344,27.2166659 35.4841537,27.1567646 C34.4709041,28.2766581 33.4576545,29.399156 32.2308151,30.7612591 C33.707711,30.8966881 34.715751,30.9878422 35.778491,31.0842051 L35.778491,27.3442817 Z M40.3316022,30.8055339 C40.4071401,30.683127 40.4826779,30.5581156 40.5556111,30.4357086 C39.5293377,29.3522768 38.5004596,28.2688449 37.4715815,27.1880175 C37.3804151,27.2765672 37.2918534,27.3677213 37.200687,27.4536666 L37.200687,31.0816007 C38.2998935,30.9852378 39.3157478,30.8966881 40.3316022,30.8055339 Z M44.5226525,42.759746 C43.5849408,42.6060862 42.7019289,41.6033908 41.8397551,42.5826465 C40.8056675,43.7598369 39.9669365,45.1037091 39.0891342,46.3121523 C40.9619528,46.0855692 43.1004564,44.7364882 44.5226525,42.759746 Z M28.4851778,42.8873617 C29.9386309,44.6948178 31.7411212,45.8824257 34.1557288,46.4658121 C33.2883455,45.4058199 32.4782668,44.5333447 31.8062401,43.5697154 C30.6627527,41.9393589 30.4517676,41.8586224 28.4851778,42.8873617 Z M37.2397584,41.6450613 L37.2397584,45.6766779 L37.5601432,45.8589861 C38.6254878,44.6375209 39.6908325,43.4134512 40.7561772,42.1893816 C40.6884536,42.0643702 40.6181252,41.9393589 40.5477968,41.8169519 C39.4642189,41.759655 38.3780362,41.7049625 37.2397584,41.6450613 Z M35.7706767,41.6398525 C34.5959323,41.7075669 33.5149591,41.7700726 32.4313812,41.8325783 C32.3688671,41.9575897 32.3037482,42.0826011 32.2412341,42.2102168 C33.314393,43.4238689 34.387552,44.6375209 35.4581061,45.8485685 C35.5622963,45.7860628 35.6664865,45.7235571 35.7706767,45.6558426 L35.7706767,41.6398525 Z M46.8877697,37.2175753 L43.3739557,37.2175753 C43.1343182,38.4650846 42.9103093,39.642275 42.6810909,40.8481138 C43.571917,41.1215762 44.4236718,41.3820165 45.5411116,41.720589 C45.9891294,40.223057 46.4189139,38.790635 46.8877697,37.2175753 Z M30.3449727,40.8455094 C30.0844972,39.5563297 29.8474645,38.3895569 29.6156414,37.2566414 L26.0783845,37.2566414 C26.6019402,38.8791848 27.0551675,40.3011891 27.5083948,41.7101714 C28.6388583,41.3689945 29.4567513,41.1189718 30.3449727,40.8455094 Z M29.5948033,35.8007798 C29.8943501,34.3917975 30.1652446,33.1078266 30.4465581,31.7821852 C29.7745314,31.5660198 29.1389712,31.3107882 28.4773636,31.1727548 C28.2194928,31.1154579 27.7532417,31.2248429 27.643842,31.4123599 C26.8598109,32.7406057 26.2971839,34.1443792 26.3779313,35.8007798 L29.5948033,35.8007798 Z M43.4104222,35.7669226 L46.6559466,35.7669226 C46.6663656,34.0349943 46.2105335,32.477561 45.1842602,31.2847442 C44.9081562,30.9617981 43.5693123,31.5451845 42.7201622,31.7248884 C42.6576481,31.7405148 42.6107625,31.8446909 42.5716912,31.8915702 C42.8451905,33.1547059 43.1134802,34.4048196 43.4104222,35.7669226 Z M37.2345488,37.2201797 L37.2345488,40.3298375 C38.6463259,40.423596 39.9565175,40.5147501 41.3891326,40.6111131 C41.6235605,39.4755932 41.8449647,38.4077877 42.0924163,37.2201797 L37.2345488,37.2201797 Z M31.636931,40.6163219 C33.0981984,40.5121457 34.4057852,40.4183872 35.7498387,40.3220243 L35.7498387,37.2566414 L30.9049949,37.2566414 C31.1706799,38.467689 31.4025031,39.5354944 31.636931,40.6163219 Z M37.211106,35.8580767 L38.5447405,35.8580767 L41.8397551,35.8580767 C42.1835828,32.761441 41.4646705,31.9723067 38.7036305,32.2587911 C38.2113319,32.3082747 37.7138237,32.3499452 37.211106,32.3942201 L37.211106,35.8580767 Z M35.7837005,32.3890113 C34.684494,32.2848351 33.6582206,32.1494061 32.624133,32.1103401 C32.306353,32.0973181 31.7593545,32.2848351 31.6916308,32.5010006 C31.3634318,33.5401576 31.1628656,34.6183806 30.8997854,35.743483 L35.7837005,35.743483 L35.7837005,32.3890113 Z M48,36.511782 C48,42.934241 42.8634237,48.0362674 36.4322844,47.9998058 C30.0584497,47.9633441 24.989597,42.8691309 25.000016,36.5039688 C25.0104351,30.0867186 30.1730589,24.9534393 36.5703364,25.0003185 C42.9415664,25.0524066 48,30.1466198 48,36.511782 Z" id="Fill-3" fill="#060E9F"></path>
                        <path d="M27.0090079,26 C27.0090079,22.9362284 26.8902831,22.4579411 27.5148787,21.0750076 C27.9562252,20.0938354 28.8053654,19.416034 29.6622486,18.9514121 C31.0921079,18.1752202 32.6613398,17.6832675 34.295096,17.0245976 C35.7610889,18.169754 37.3845212,18.2244154 38.8505142,17 C39.9783996,17.4618889 40.9823983,17.9675068 42.0354354,18.2818099 C44.5905992,19.0416034 45.9043147,20.5092621 45.9843248,23.5703006 C46.0023917,24.2945642 45.9998107,25.2866687 45.9999381,26" id="Stroke-5" stroke="#060E9F"></path>
                        <path d="M33.0000031,10.6326124 C32.9973951,7.82083908 34.6352505,5.94357497 37.0476967,6.00129465 C39.4444947,6.0617629 41.1162547,8.05446639 40.9936764,10.7865316 C40.9076107,12.7599952 40.2660304,14.5383113 38.9541813,15.9813034 C37.7101414,17.3500846 36.2470254,17.3280961 34.9716889,15.984052 C33.7980664,14.7499501 33.0052192,12.5978303 33.0000031,10.6326124 Z" id="Stroke-7" stroke="#060E9F"></path>
                        <path d="M44.0090622,58 C44.0090622,54.9362284 43.8903365,54.4579411 44.5123556,53.0750076 C44.9562862,52.0938354 45.8028515,51.416034 46.6597408,50.948679 C48.0921912,50.1724871 49.6614343,49.6832675 51.2952021,49.0218646 C52.7612054,50.167021 54.3846493,50.2244154 55.8480717,49 C56.9785461,49.4591558 57.9825519,49.9675068 59.0355966,50.2790768 C61.5907785,51.0388703 62.9019223,52.5092621 62.984514,55.5703006 C63,56.2918312 63,57.2866687 63,58" id="Stroke-9" stroke="#060E9F"></path>
                        <path d="M49.0000124,43.6319659 C48.9947963,40.8205139 50.6352579,38.9462125 53.0477013,39.0011773 C55.4444965,39.0616387 57.1162546,41.0541145 56.9936764,43.7858675 C56.9050028,45.7618538 56.2634232,47.5399667 54.9515756,48.9800457 C53.7101452,50.3514187 52.2470309,50.3266845 50.9716959,48.9855422 C49.7954667,47.7515813 49.0026205,45.5997075 49.0000124,43.6319659 Z" id="Stroke-11" stroke="#060E9F"></path>
                        <path d="M11.0090622,58 C11.0090622,54.9362284 10.8903365,54.4579411 11.5123556,53.0750076 C11.9562862,52.0938354 12.8028515,51.416034 13.6597408,50.948679 C15.0921912,50.1724871 16.6614343,49.6832675 18.2952021,49.0218646 C19.7612054,50.167021 21.3846493,50.2244154 22.8480717,49 C23.9785461,49.4591558 24.9825519,49.9675068 26.0355966,50.2790768 C28.5907785,51.0388703 29.9019223,52.5092621 29.984514,55.5703006 C30,56.2918312 30,57.2866687 30,58" id="Stroke-13" stroke="#060E9F"></path>
                        <path d="M16.0000124,43.6319659 C15.9947963,40.8205139 17.6352579,38.9462125 20.0477013,39.0011773 C22.4444965,39.0616387 24.1162546,41.0541145 23.9936764,43.7858675 C23.9050028,45.7618538 23.2634232,47.5399667 21.9515756,48.9800457 C20.7101452,50.3514187 19.2470309,50.3266845 17.9716959,48.9855422 C16.7954667,47.7515813 16.0026205,45.5997075 16.0000124,43.6319659 Z" id="Stroke-15" stroke="#060E9F"></path>
                    </g>
                </g>
            </g>
        </g>
    </g>
</svg>