<?xml version="1.0" encoding="UTF-8"?>
<svg width="106px" height="20px" viewBox="0 0 106 20" version="1.1" xmlns="http://www.w3.org/2000/svg" xmlns:xlink="http://www.w3.org/1999/xlink">
    <!-- Generator: Sketch 50.2 (55047) - http://www.bohemiancoding.com/sketch -->
    <title>piyetra_logo</title>
    <desc>Created with Sketch.</desc>
    <defs></defs>
    <g id="Symbols" stroke="none" stroke-width="1" fill="none" fill-rule="evenodd">
        <g id="Footer3" transform="translate(-1105.000000, -269.000000)" fill="#932D62">
            <g id="Footer">
                <g id="5" transform="translate(134.000000, 230.000000)">
                    <g id="piyetra_logo" transform="translate(971.000000, 39.000000)">
                        <g id="Group-5">
                            <path d="M21.8466012,11.5787875 C27.7873437,10.1652305 30.0641234,6.91029706 30.1862992,5.14656904 C30.3122611,3.38845581 29.5387239,0.478900294 24.8165356,0.173373684 C20.0960947,-0.131057358 14.886077,1.28263659 9.71872611,3.7326012 C5.97248775,5.50687407 3.53523395,7.34208792 0.663884812,9.97090406 C0.0509672481,10.5314242 -0.500061514,12.1750505 0.762324411,11.468272 C0.762324411,11.468272 1.13729774,11.0564753 1.84967424,10.4011885 C3.65930279,8.72839266 7.63270945,5.48153905 13.0142684,3.50595551 C20.504852,0.746492852 22.5773259,1.05448449 24.4524838,1.08967962 C26.4948142,1.13500876 29.2431139,1.63855934 29.3853853,3.87653149 C29.4429055,4.76873493 28.7177144,6.0897164 27.9689327,6.77307713 C26.7074205,7.91904158 24.6413539,9.82806934 19.267076,10.1294876 C16.2870938,10.3024504 12.3866431,10.2338405 10.1391331,8.08159652 C9.72688087,7.68869834 9.69411621,7.30100411 8.88402821,7.69732594 L1.51765903,14.8921969 C0.857269113,15.5388561 0.871831184,15.9283306 1.25029941,16.4035333 C2.05762062,17.4192621 2.31667986,16.9954141 3.34184965,15.9283306 C5.57115708,13.6175032 7.84793686,11.5883737 10.0360336,9.25166347 C10.7703989,10.5314242 13.2806086,11.3309152 14.2146199,11.5513983 C16.2067112,12.031805 18.8739001,12.290496 21.8466012,11.5787875" id="Fill-1"></path>
                            <path d="M42.2968455,8.73345966 C41.8416351,8.21196915 41.5023389,8.31837622 40.977085,8.75578187 C40.2728632,9.34245869 39.4227295,9.98939177 38.536045,10.5941455 C37.6486324,11.1971189 36.7082139,11.4132197 37.6749898,10.1420866 C38.3783378,9.21003187 37.5472804,8.08666353 36.4600762,8.78317107 C35.1529847,9.62429364 33.6578969,10.5314242 32.3116335,11.407331 C31.8300658,11.722033 31.8792856,11.4132197 32.0634958,11.0426438 C32.2624137,10.6241367 32.7932011,9.78178158 32.9555682,9.51405208 C33.1196828,9.24645952 33.0368246,9.13156179 32.9555682,9.01488377 C32.8716907,8.89998604 32.7512624,8.55679927 32.5871478,8.4384779 C32.4284213,8.32686688 32.2624137,8.17293953 31.9758321,8.36302063 C31.0820122,8.96859601 27.8677263,10.3632545 26.3133708,11.0633226 C25.4668777,11.4510168 25.3173252,11.3343388 25.7952524,12.1167115 C25.955872,12.3843041 26.3206519,12.2307876 26.7292636,12.0790514 C27.1378753,11.9255349 30.148001,10.1986453 30.148001,10.1986453 C30.148001,10.1986453 30.0641234,10.432823 30.0275726,10.93295 C29.9473356,11.8624027 30.4034197,12.9568755 31.5417368,12.6138256 C32.9382394,12.1887451 34.4350746,11.1396015 35.6929463,10.3839333 C35.3472428,12.1703944 36.2337816,12.5532955 37.5692692,12.2581768 C38.1302001,12.1338298 39.0213989,11.6946438 39.7729473,11.2520342 C40.5246414,10.8068227 41.1366853,10.3585983 41.1366853,10.3585983 C40.2617961,11.5377037 39.338852,12.3843041 38.0435558,13.2417232 C32.3334766,17.0315679 24.9780289,18.784888 18.0748792,17.4261094 C14.886077,16.7998552 13.2367768,15.6401961 11.8468271,14.3568748 C11.6059705,14.1303661 11.3067199,14.2642993 11.3067199,14.9110954 C11.3067199,14.9899763 12.1568536,16.3195854 13.8644021,17.1687878 C28.5171947,24.4308992 44.341069,11.0770172 42.2968455,8.73345966" id="Fill-3"></path>
                            <path d="M71.2073617,9.7830141 C70.3972737,10.4740438 67.6408193,11.5574239 66.9603337,11.468272 C66.4513893,11.407331 66.7423395,11.0709916 67.2904558,10.6456372 C68.3412549,9.82806934 69.340941,9.25166347 70.6599734,8.87245989 C71.6378165,8.59445943 72.4934838,8.6871719 71.2073617,9.7830141 Z M46.0850226,9.63812519 C46.4133973,9.26535807 46.7325979,8.98352313 47.2526094,8.87245989 C47.9001847,8.73345966 48.2959818,9.43010416 45.4126918,10.755331 C45.5487015,10.3585983 45.7894126,9.97213657 46.0850226,9.63812519 Z M105.517639,12.6755883 C103.157856,12.8093846 91.8572519,13.3909944 83.674533,12.9379769 C75.6056895,12.4881092 72.697644,11.6534231 72.3820839,10.5575809 C72.2663155,10.1575615 72.5007648,9.93105276 72.697644,9.74576477 C72.9896135,9.48666287 73.6957283,9.05610453 73.6371888,8.81247753 C73.5222941,8.33549448 72.840061,8.59843087 72.8710783,8.60308704 C72.9850993,7.80880002 71.2110022,7.5086143 69.9529849,7.85508778 C68.5893926,8.22566376 67.4574828,8.74208726 66.4513893,9.54541272 C66.1102,9.81437474 65.7206646,10.2123399 65.4499557,10.6490608 C65.0566342,10.8995351 64.2822232,11.3996621 63.5854281,11.6578054 C62.1350459,12.1977836 62.3485258,11.2691525 63.408499,9.98596812 C63.942927,9.33396804 63.5745066,8.43327395 62.9250382,8.38561673 C62.0419942,8.31659592 60.605446,8.57569783 60.0663581,8.34056148 C60.87266,7.58749522 59.9268534,6.96384296 59.34306,7.17063148 C58.8403773,7.34208792 58.6689818,7.83112222 59.0957961,8.46066316 C59.0957961,8.46066316 58.2018305,9.14868005 57.4312057,9.63415375 C54.6300458,11.407331 52.9396806,11.3387211 54.1264894,9.18990081 C54.4585046,8.58939243 55.6460415,7.36961407 56.6512612,6.37374249 C56.7524676,6.36771686 56.8628481,6.36771686 56.9640545,6.35991094 C62.7443229,6.11970759 68.4763909,6.13093716 74.2610279,6.04425032 C75.687674,6.02713207 77.213779,5.99714088 78.7451264,5.95592013 C81.4980859,5.88731016 82.2989998,5.83581845 82.3499671,5.7217424 C82.4457855,5.53042879 81.9597036,5.44812422 80.4982541,5.44812422 L71.3513805,5.42415866 C71.3513805,5.42415866 64.4000304,5.33144619 57.6181827,5.41635274 C57.8699609,5.16587843 58.0597047,4.97374314 58.1243603,4.8888366 C58.4499682,4.46717975 58.4499682,4.31571743 58.4901595,4.00621939 C58.6908249,2.49638932 57.5587695,3.29930394 56.942357,3.9315838 C56.6933456,4.18548175 56.0582937,4.82967591 55.4363476,5.44812422 C50.1568689,5.53042879 45.5669041,5.61328114 45.2969233,5.5956151 C44.8080746,5.56398057 44.1804493,5.56041997 43.6212658,5.49865731 C42.7392412,5.40265813 42.261314,6.14120812 43.224595,6.46974166 C43.6696119,6.62503847 44.3629121,6.69022478 45.3625983,6.69022478 C48.3271446,6.69022478 51.4010522,6.58641968 54.4056443,6.46631801 C54.3198737,6.54862258 54.2424035,6.62503847 54.1757092,6.68680113 C52.6871743,8.08666353 48.3890334,11.9589497 46.2583112,11.8559663 C45.618017,11.8250165 45.6582083,11.6019314 45.5596231,11.5548219 C46.186229,11.2082115 46.7982728,10.8368139 47.4641963,10.501433 C48.4775708,9.99445878 49.1343202,9.12991844 49.0184061,8.52941007 C48.9490907,8.16910504 48.688284,7.85002077 47.8090262,7.92369774 C46.0120666,8.06790192 43.8375126,9.82806934 43.6550498,11.5411273 C42.7931208,11.9210156 41.9977405,12.2642024 41.5096199,12.4907112 C40.5054195,12.9568755 41.37827,13.6809092 42.2750024,13.3429263 C42.4619794,13.2743164 43.1953252,12.8771729 43.9323117,12.463185 C44.4349943,12.9653661 45.4856478,12.9791977 46.2820474,12.7441983 C48.8241481,11.9905842 52.2146351,9.02337442 52.8048358,8.58418848 C52.0749848,9.51802351 51.6599658,11.1945169 52.0430939,11.7038192 C52.5347094,12.3569149 53.7970953,12.4709909 55.4600838,11.5652298 C56.7497008,10.8677637 58.5267103,9.51405208 59.4607216,8.77988437 C60.3718703,9.27384873 61.7519178,8.8861545 62.0402468,9.36149419 C62.1679562,9.57417139 61.6716808,10.0133573 61.4600939,10.3976279 C60.4969585,12.1750505 61.2337993,13.3018425 63.9247244,12.1004149 C64.3478982,11.915127 64.7866534,11.7084754 65.1432785,11.5298978 C65.1378905,11.8113219 65.2236611,12.0865834 65.4671389,12.3267867 C66.2607718,13.10779 68.116999,12.3878647 68.9825685,12.0591942 C69.8372164,11.7312084 70.5797364,11.2828471 71.4390442,10.5863396 C71.4390442,10.5863396 71.3168684,12.5778088 75.3922096,13.3429263 C80.2812793,14.262519 85.465959,14.2076036 89.7722546,14.1526883 C92.048015,14.1200951 103.650491,13.6499594 105.905282,12.8864852 C105.922611,12.5637034 105.689181,12.6618937 105.517639,12.6755883 Z" id="Fill-4"></path>
                        </g>
                        <path d="M32.6995029,7.65357351 C32.8142435,7.70110652 33.0927612,7.61343008 33.2683746,7.48401246 C33.4437466,7.35080019 34.279058,6.86668244 34.436313,6.69152927 C34.8600077,6.21240448 34.634633,5.82075641 34.279058,5.41053452 C33.8312074,4.90005392 33.5891651,4.90005392 33.0200519,5.22160078 C32.4936945,5.51059351 32.0245867,5.94717825 32.0004308,6.48122565 C31.9912516,6.78280065 32.1303896,7.11313512 32.2620393,7.29068491 C32.3905488,7.47103076 32.5842792,7.60104753 32.6995029,7.65357351" id="Fill-6"></path>
                    </g>
                </g>
            </g>
        </g>
    </g>
</svg>