<?xml version="1.0" encoding="UTF-8"?>
<svg width="281px" height="64px" viewBox="0 0 281 64" version="1.1" xmlns="http://www.w3.org/2000/svg" xmlns:xlink="http://www.w3.org/1999/xlink">
    <!-- Generator: Sketch 50.2 (55047) - http://www.bohemiancoding.com/sketch -->
    <title>LOGO</title>
    <desc>Created with Sketch.</desc>
    <defs>
        <polygon id="path-1" points="0 64 280 64 280 0 0 0"></polygon>
    </defs>
    <g id="kalıp" stroke="none" stroke-width="1" fill="none" fill-rule="evenodd">
        <g id="Tire-Curing-Molds" transform="translate(-50.000000, -9.000000)">
            <g id="header" transform="translate(0.000000, -1.000000)">
                <g id="LOGO" transform="translate(50.000000, 10.000000)">
                    <path d="M48.5680984,45.0117911 C50.7165983,44.9736103 53.2753076,42.4581696 53.2753076,40.0752386 L53.2753076,39.3924761 C53.2753076,35.6462661 50.5035614,34 46.8638032,34 L34,34 L34,54 L40.8579754,54 L40.8579754,45.9191465 L41.4970861,45.9191465 C44.3821498,45.9191465 46.5147852,54 47.9289877,54 L55,54 C54.7665659,53.0926446 52.8877617,49.9887704 52.3075761,48.9668725 C50.6010145,46.0336889 50.6214116,46.8848961 48.5680984,45.0117911 M40.6993309,38.0291971 L40.6993309,41.9663111 C44.5067991,42.1527232 46.7028923,41.6384054 46.5419814,40.1044357 C46.8774013,38.285233 44.4229441,37.8450309 40.6993309,38.0291971" id="Fill-1" fill="#FFFFFF"></path>
                    <path d="M17.9435571,38.4525872 L30.7869631,38.4525872 L30.7869631,34.6728847 C30.7869631,34.1687764 30.6328513,34 30.1478524,34 L10.6572415,34 C10.1541118,34 10,34.1687764 10,34.6728847 L10,54 L31,54 L31,49.3408839 L17.9435571,49.3408839 L17.9435571,45.5634022 L29.7195122,45.5634022 L29.7195122,41.3328892 L17.9435571,41.3328892 L17.9435571,38.4525872 Z" id="Fill-3" fill="#FFFFFF"></path>
                    <path d="M21.5556525,32 C26.3632399,32 29.9978197,28.7740573 30,23.7782815 L30,11 L23.4023765,11 L23.4023765,23.7782815 C23.4023765,25.4572429 22.2075657,27.0236967 20.7162324,27.0236967 L19.2815873,27.0236967 C17.5482394,27.0236967 16.5998038,25.4572429 16.5998038,23.5597569 L16.5998038,11 L10,11 L10,24.4165465 C10,29.0661447 14.1752971,32 18.873869,32 L21.5556525,32 Z" id="Fill-5" fill="#FFFFFF"></path>
                    <path d="M35.2153265,15.7069141 L45.4214787,15.7069141 C44.1845656,17.7664695 34,27.6716296 34,28.7283296 L34,32.3202121 C34,32.8496839 34.146789,33 34.6065839,33 L54,33 L54,27.8398939 L42.3756071,27.8398939 C43.5930923,25.8184785 53.5963303,16.0838262 53.5963303,15.0450744 L53.5963303,11 L35.2153265,11 L35.2153265,15.7069141 Z" id="Fill-7" fill="#FFFFFF"></path>
                    <path d="M10,55 C14.4862573,59.217207 21.8411732,64 30.1332868,64 L33.8667132,64 C42.1215144,64 49.5532499,59.1992519 54,55 L10,55 Z" id="Fill-9" fill="#FFFFFF"></path>
                    <path d="M10,9 L54,9 C48.4138591,3.79030242 41.3674775,0 30.9485824,0 C23.9797553,0 12.7653724,4.96450887 10,9" id="Fill-11" fill="#FFFFFF"></path>
                    <path d="M56,54 C57.6835867,52.8730369 61.1922185,47.3500408 62.1430044,45.2276667 C63.3349652,42.6032021 65,37.0999388 65,33.3857842 L65,32.0571079 C65,27.6961554 63.5112085,22.8024169 62.1430044,19.7723333 C61.1133728,17.4635937 57.843597,12.2365898 56,11 L56,54 Z" id="Fill-13" fill="#FFFFFF"></path>
                    <path d="M0,32.2762494 C0,37.4269449 1.11780243,41.1797527 2.43634443,44.8926842 C3.2308505,47.170067 6.39197042,52.8236476 8,54 L8,11 C4.17326994,13.8356517 0,24.6798042 0,32.2762494" id="Fill-15" fill="#FFFFFF"></path>
                    <path d="M84.4465409,44 C81.8248166,44 79.7621855,43.2670863 78.2586478,41.8035072 C76.7528826,40.3444245 76,38.1591727 76,35.25 L76,24 L80.2923218,24 L80.2923218,35.1375899 C80.2923218,36.7517986 80.6643082,37.9658273 81.4082809,38.7819245 C82.1500262,39.5980216 83.1813417,40.004946 84.5,40.004946 C85.8186583,40.004946 86.8499738,39.6115108 87.5939465,38.8246403 C88.3356918,38.0355216 88.7076782,36.8529676 88.7076782,35.2792266 L88.7076782,24 L93,24 L93,35.1106115 C93,36.6101619 92.8017558,37.9141187 92.4008124,39.0202338 C92.0020964,40.1263489 91.4318658,41.0503597 90.6878931,41.7922662 C89.9461478,42.5319245 89.0417977,43.084982 87.9837526,43.4491906 C86.9257075,43.8156475 85.745152,44 84.4465409,44" id="Fill-17" fill="#FFFFFF"></path>
                    <polygon id="Fill-19" fill="#FFFFFF" points="97 39.8239324 107.565045 27.6641927 97.3289925 27.6641927 97.3289925 24 113 24 113 27.1738982 102.437149 39.3336378 113 39.3336378 113 43 97 43"></polygon>
                    <polygon id="Fill-21" fill="#FFFFFF" points="117 24 131.860255 24 131.860255 27.7184289 121.284748 27.7184289 121.284748 31.5735328 130.591285 31.5735328 130.591285 35.2919616 121.284748 35.2919616 121.284748 39.2815711 132 39.2815711 132 43 117 43"></polygon>
                    <path d="M144.711096,33.2288194 C145.780053,33.2288194 146.599736,32.9858415 147.170145,32.4955469 C147.742801,32.0074218 148.028005,31.3565883 148.028005,30.5430464 L148.028005,30.4888102 C148.028005,29.5819822 147.727081,28.9051153 147.127477,28.4517013 C146.530119,28.0004567 145.694716,27.772665 144.628005,27.772665 L140.327477,27.772665 L140.327477,33.2288194 L144.711096,33.2288194 Z M136.002246,24 L144.994055,24 C147.482299,24 149.393395,24.6421557 150.725099,25.9264672 C151.847952,27.0133592 152.411625,28.4603791 152.411625,30.2696963 L152.411625,30.3261018 C152.411625,31.8642384 152.020872,33.1160082 151.243857,34.0835807 C150.466843,35.0511532 149.449538,35.7627312 148.196433,36.2139758 L153,43 L147.942668,43 L143.729723,36.9212149 L143.67358,36.9212149 L140.327477,36.9212149 L140.327477,43 L136,43 L136.002246,24 Z" id="Fill-23" fill="#FFFFFF"></path>
                    <polygon id="Fill-25" fill="#FFFFFF" points="164 24 168.503768 24 173.5 32.0334551 178.494063 24 183 24 183 43 178.873715 43 178.873715 30.595113 173.528203 38.7110071 173.419731 38.7110071 168.124115 30.677552 168.124115 43 164 43"></polygon>
                    <path d="M200.075514,35.1036164 L197.442314,28.9863961 L194.811376,35.1036164 L200.075514,35.1036164 Z M195.490036,24 L199.507702,24 L208,43 L203.441668,43 L201.629646,38.7696406 L193.25272,38.7696406 L191.44296,43 L187,43 L195.490036,24 Z" id="Fill-27" fill="#FFFFFF"></path>
                    <polygon id="Fill-29" fill="#FFFFFF" points="210 24 214.35207 24 214.35207 32.3046358 222.374153 24 227.634128 24 219.578168 32.0616579 228 43 222.771644 43 216.6399 34.9101393 214.35207 37.1923955 214.35207 43 210 43"></polygon>
                    <polygon id="Fill-31" fill="#FFFFFF" points="240 24 243.881408 24 252.845561 35.6998173 252.845561 24 257 24 257 43 253.420018 43 244.154439 30.9205298 244.152255 43 240 43"></polygon>
                    <g id="Group-35" transform="translate(230.000000, 23.000000)" fill="#FFFFFF">
                        <path d="M42.5320043,12.11288 L39.9509609,5.86488 L37.3699174,12.11288 L42.5320043,12.11288 Z M38.0373522,0.77408 L41.9754391,0.77408 L50.2995261,20.17808 L45.8314826,20.17808 L44.0553522,15.85728 L35.8421348,15.85728 L34.0704391,20.17808 L29.7132652,20.17808 L38.0373522,0.77408 Z" id="Fill-33"></path>
                        <polygon id="Fill-36" points="0.334826087 4.0138 4.60552174 4.0138 4.60552174 0.9118 0.334826087 0.9118"></polygon>
                        <polygon id="Fill-38" points="0.334826087 20.1772 4.60552174 20.1772 4.60552174 5.9586 0.334826087 5.9586"></polygon>
                    </g>
                    <mask id="mask-2" fill="white">
                        <use xlink:href="#path-1"></use>
                    </mask>
                    <g id="Clip-37"></g>
                </g>
            </g>
        </g>
    </g>
</svg>