<?xml version="1.0" encoding="UTF-8"?>
<svg width="16px" height="16px" viewBox="0 0 16 16" version="1.1" xmlns="http://www.w3.org/2000/svg" xmlns:xlink="http://www.w3.org/1999/xlink">
    <!-- Generator: Sketch 50.2 (55047) - http://www.bohemiancoding.com/sketch -->
    <title>LOGO</title>
    <desc>Created with Sketch.</desc>
    <defs>
        <polygon id="path-1" points="0.308 0.12848 11.7628571 0.12848 11.7628571 2 0.308 2"></polygon>
        <polygon id="path-3" points="0.0176323529 0.1132 10.7253775 0.1132 10.7253775 2.91411 0.0176323529 2.91411"></polygon>
        <polygon id="path-5" points="0.113446667 0.0435555556 1.92453333 0.0435555556 1.92453333 10.9391111 0.113446667 10.9391111"></polygon>
        <polygon id="path-7" points="0 0.0309784832 2.840175 0.0309784832 2.840175 10.9518056 0 10.9518056"></polygon>
    </defs>
    <g id="contact" stroke="none" stroke-width="1" fill="none" fill-rule="evenodd">
        <g id="CONTACT--2" transform="translate(-169.000000, -1263.000000)">
            <g id="contact-us-" transform="translate(145.000000, 787.000000)">
                <g id="yazı">
                    <g id="ülke-butonu" transform="translate(0.000000, 465.000000)">
                        <g id="1">
                            <g id="LOGO" transform="translate(24.000000, 11.000000)">
                                <path d="M11.4687601,11.7529478 C11.9802525,11.7434026 12.5894033,11.1139809 12.5894033,10.5182482 L12.5894033,10.348119 C12.5894033,9.41100505 11.9295349,9 11.0630193,9 L8,9 L8,14 L9.63321463,14 L9.63321463,11.9797866 L9.78536743,11.9797866 C10.4722132,11.9797866 10.9799288,14 11.3166073,14 L13,14 C12.9444265,13.7731611 12.4966008,12.9971926 12.3584763,12.7417181 C11.9527355,12.0084222 11.9575915,12.221224 11.4687601,11.7529478 M9.59544621,10.0072993 L9.59544621,10.9915778 C10.5013489,11.0381808 11.0241718,10.9090399 10.9864034,10.5261089 C11.0662566,10.0713083 10.4819251,9.96125772 9.59544621,10.0072993" id="Fill-1" fill="#060E9F"></path>
                                <path d="M4.89111902,10.1131468 L7.9492824,10.1131468 L7.9492824,9.16822119 C7.9492824,9.04163891 7.91259307,9 7.7971296,9 L3.15700874,9 C3.03668933,9 3,9.04163891 3,9.16822119 L3,14 L8,14 L8,12.8346658 L4.89111902,12.8346658 L4.89111902,11.8902954 L7.69515485,11.8902954 L7.69515485,10.8332223 L4.89111902,10.8332223 L4.89111902,10.1131468 Z" id="Fill-3" fill="#060E9F"></path>
                                <path d="M5.88945819,8 C7.09135506,8 8,7.23235446 8,6.04276146 L8,3 L6.35059413,3 L6.35059413,6.04276146 C6.35059413,6.44204019 6.0524365,6.81504379 5.67960318,6.81504379 L5.32094189,6.81504379 C4.88760493,6.81504379 4.64995094,6.44204019 4.64995094,5.99072643 L4.64995094,3 L3,3 L3,6.19474498 C3,7.30190623 4.04382427,8 5.21846724,8 L5.88945819,8 Z" id="Fill-5" fill="#060E9F"></path>
                                <path d="M8.30433844,4.28418477 L10.8556011,4.28418477 C10.5458666,4.84582441 8,7.54634445 8,7.83511777 L8,8.81462221 C8,8.95900887 8.03669329,9 8.15216922,9 L13,9 L13,7.59284185 L10.0936758,7.59284185 C10.3985539,7.04160294 12.8985539,4.38696849 12.8985539,4.10370144 L12.8985539,3 L8.30433844,3 L8.30433844,4.28418477 Z" id="Fill-7" fill="#060E9F"></path>
                                <g id="Group-11" transform="translate(3.000000, 14.000000)">
                                    <mask id="mask-2" fill="white">
                                        <use xlink:href="#path-1"></use>
                                    </mask>
                                    <g id="Clip-10"></g>
                                    <path d="M0.308,0.12848 C1.47542857,1.00534667 3.39028571,2.00028 5.54971429,2.00028 L6.52171429,2.00028 C8.67085714,2.00028 10.6057143,1.00114667 11.7628571,0.12848 L0.308,0.12848 Z" id="Fill-9" fill="#060E9F" mask="url(#mask-2)"></path>
                                </g>
                                <g id="Group-14" transform="translate(3.000000, 0.000000)">
                                    <mask id="mask-4" fill="white">
                                        <use xlink:href="#path-3"></use>
                                    </mask>
                                    <g id="Clip-13"></g>
                                    <path d="M0.0176323529,2.91411 L10.7253775,2.91411 C9.36601471,1.29291 7.65076961,0.11341 5.11591667,0.11271 C3.42008333,0.11271 0.691112745,1.65831 0.0176323529,2.91411" id="Fill-12" fill="#060E9F" mask="url(#mask-4)"></path>
                                </g>
                                <g id="Group-17" transform="translate(14.000000, 3.000000)">
                                    <mask id="mask-6" fill="white">
                                        <use xlink:href="#path-5"></use>
                                    </mask>
                                    <g id="Clip-16"></g>
                                    <path d="M0.113446667,10.9391111 C0.452713333,10.6535556 1.15878,9.25466667 1.35011333,8.71633333 C1.58951333,8.05188889 1.92458,6.65688889 1.92458,5.71633333 L1.92458,5.37911111 C1.92458,4.27411111 1.62544667,3.03411111 1.35011333,2.26688889 C1.14291333,1.68133333 0.484446667,0.356888889 0.113446667,0.0435555556 L0.113446667,10.9391111 Z" id="Fill-15" fill="#060E9F" mask="url(#mask-6)"></path>
                                </g>
                                <g id="Group-20" transform="translate(0.000000, 3.000000)">
                                    <mask id="mask-8" fill="white">
                                        <use xlink:href="#path-7"></use>
                                    </mask>
                                    <g id="Clip-19"></g>
                                    <path d="M-7.5e-05,5.43428713 C-7.5e-05,6.74235591 0.397425,7.69541764 0.865425,8.63778977 C1.147425,9.2167157 2.269425,10.652497 2.840175,10.9518056 L2.840175,0.0309784832 C1.481175,0.751682187 -7.5e-05,3.50509665 -7.5e-05,5.43428713" id="Fill-18" fill="#060E9F" mask="url(#mask-8)"></path>
                                </g>
                            </g>
                        </g>
                    </g>
                </g>
            </g>
        </g>
    </g>
</svg>