<?xml version="1.0" encoding="UTF-8"?>
<svg width="65px" height="65px" viewBox="0 0 65 65" version="1.1" xmlns="http://www.w3.org/2000/svg" xmlns:xlink="http://www.w3.org/1999/xlink">
    <!-- Generator: Sketch 50.2 (55047) - http://www.bohemiancoding.com/sketch -->
    <title>uzer_mini</title>
    <desc>Created with Sketch.</desc>
    <defs></defs>
    <g id="hakkında" stroke="none" stroke-width="1" fill="none" fill-rule="evenodd">
        <g id="1440x900" transform="translate(-859.000000, -2276.000000)" fill="#161EA6">
            <g id="uzer_mini" transform="translate(859.000000, 2276.000000)">
                <path d="M48.5680984,45.0117911 C50.7165983,44.9736103 53.2753076,42.4581696 53.2753076,40.0752386 L53.2753076,39.3924761 C53.2753076,35.6462661 50.5035614,34 46.8638032,34 L34,34 L34,54 L40.8579754,54 L40.8579754,45.9191465 L41.4970861,45.9191465 C44.3821498,45.9191465 46.5147852,54 47.9289877,54 L55,54 C54.7665659,53.0926446 52.8877617,49.9887704 52.3075761,48.9668725 C50.6010145,46.0336889 50.6214116,46.8848961 48.5680984,45.0117911 M40.6993309,38.0291971 L40.6993309,41.9663111 C44.5067991,42.1527232 46.7028923,41.6384054 46.5419814,40.1044357 C46.8774013,38.285233 44.4229441,37.8450309 40.6993309,38.0291971" id="Fill-1"></path>
                <path d="M17.9435571,38.4525872 L30.7869631,38.4525872 L30.7869631,34.6728847 C30.7869631,34.1687764 30.6328513,34 30.1478524,34 L10.6572415,34 C10.1541118,34 10,34.1687764 10,34.6728847 L10,54 L31,54 L31,49.3408839 L17.9435571,49.3408839 L17.9435571,45.5634022 L29.7195122,45.5634022 L29.7195122,41.3328892 L17.9435571,41.3328892 L17.9435571,38.4525872 Z" id="Fill-3"></path>
                <path d="M21.5556525,32 C26.3632399,32 29.9978197,28.7740573 30,23.7782815 L30,11 L23.4023765,11 L23.4023765,23.7782815 C23.4023765,25.4572429 22.2075657,27.0236967 20.7162324,27.0236967 L19.2815873,27.0236967 C17.5482394,27.0236967 16.5998038,25.4572429 16.5998038,23.5597569 L16.5998038,11 L10,11 L10,24.4165465 C10,29.0661447 14.1752971,32 18.873869,32 L21.5556525,32 Z" id="Fill-5"></path>
                <path d="M35.2153265,15.7069141 L45.4214787,15.7069141 C44.1845656,17.7664695 34,27.6716296 34,28.7283296 L34,32.3202121 C34,32.8496839 34.146789,33 34.6065839,33 L54,33 L54,27.8398939 L42.3756071,27.8398939 C43.5930923,25.8184785 53.5963303,16.0838262 53.5963303,15.0450744 L53.5963303,11 L35.2153265,11 L35.2153265,15.7069141 Z" id="Fill-7"></path>
                <path d="M10,56 C14.4862573,60.217207 21.8411732,65 30.1332868,65 L33.8667132,65 C42.1215144,65 49.5532499,60.1992519 54,56 L10,56 Z" id="Fill-9"></path>
                <path d="M10,9 L54,9 C48.4138591,3.79030242 41.3674775,0 30.9485824,0 C23.9797553,0 12.7653724,4.96450887 10,9" id="Fill-11"></path>
                <path d="M56,54 C57.6835867,52.8730369 61.1922185,47.3500408 62.1430044,45.2276667 C63.3349652,42.6032021 65,37.0999388 65,33.3857842 L65,32.0571079 C65,27.6961554 63.5112085,22.8024169 62.1430044,19.7723333 C61.1133728,17.4635937 57.843597,12.2365898 56,11 L56,54 Z" id="Fill-13"></path>
                <path d="M2.43634443,44.8926842 C3.2308505,47.170067 6.39197042,52.8236476 8,54 L8,11 C4.17326994,13.8356517 0,24.6798042 0,32.2762494 C0,37.4269449 1.11780243,41.1797527 2.43634443,44.8926842 Z" id="Fill-15"></path>
            </g>
        </g>
    </g>
</svg>