<?xml version="1.0" encoding="UTF-8"?>
<svg width="76px" height="88px" viewBox="0 0 76 88" version="1.1" xmlns="http://www.w3.org/2000/svg" xmlns:xlink="http://www.w3.org/1999/xlink">
    <!-- Generator: Sketch 50.2 (55047) - http://www.bohemiancoding.com/sketch -->
    <title>Group 2</title>
    <desc>Created with Sketch.</desc>
    <defs>
        <polygon id="path-1" points="0.795666667 0.38544 30.387381 0.38544 30.387381 6 0.795666667 6"></polygon>
        <polygon id="path-3" points="0.0480882353 0.2264 29.2510294 0.2264 29.2510294 5.82822 0.0480882353 5.82822"></polygon>
        <polygon id="path-5" points="0.34034 0.114828283 5.7736 0.114828283 5.7736 28.8394747 0.34034 28.8394747"></polygon>
        <polygon id="path-7" points="0 0.0816705467 5.68035 0.0816705467 5.68035 28.8729422 0 28.8729422"></polygon>
    </defs>
    <g id="contact" stroke="none" stroke-width="1" fill="none" fill-rule="evenodd">
        <g id="CONTACT--2" transform="translate(-842.000000, -1001.000000)">
            <g id="contact-us-" transform="translate(145.000000, 787.000000)">
                <g id="görsel" transform="translate(400.000000, 13.000000)">
                    <g id="Group-2" transform="translate(297.000000, 201.000000)">
                        <g id="Group-8">
                            <path d="M71.3743277,55.2895593 L71.3711643,55.2820792 C73.9050689,50.159262 75.34021,44.3813996 75.34021,38.2594514 C75.34021,17.246711 58.5297616,0.212328697 37.7945555,0.212328697 C17.0593493,0.212328697 0.249955342,17.246711 0.249955342,38.2594514 C0.249955342,44.3813996 1.68404202,50.159262 4.21794664,55.2820792 L4.21478321,55.2916965 C4.21478321,55.2916965 4.29386888,55.4519849 4.45098573,55.7415726 C5.68155863,58.1469672 7.14833405,60.4070336 8.83654932,62.4779597 C12.5609568,67.5291814 18.7718175,74.768874 28.3148207,82.6379657 C28.3148207,82.6379657 33.3910658,87.4466177 37.7945555,87.8024579 C42.1990996,87.4466177 47.2753447,82.6379657 47.2753447,82.6379657 C56.8109666,74.7731484 63.0218273,67.5377301 66.7451803,62.4865084 C68.4481582,60.3995534 69.9265328,58.1191838 71.1634326,55.6924175 C71.3036778,55.4327503 71.3743277,55.2895593 71.3743277,55.2895593" id="Fill-2" fill="#060E9F"></path>
                            <path d="M71.4603729,38.2599857 C71.4603729,57.1013525 56.3877001,72.3757682 37.7951881,72.3757682 C19.2016217,72.3757682 4.12894891,57.1013525 4.12894891,38.2599857 C4.12894891,19.4186188 19.2016217,4.14420309 37.7951881,4.14420309 C56.3877001,4.14420309 71.4603729,19.4186188 71.4603729,38.2599857" id="Fill-4" fill="#FFFFFF"></path>
                            <path d="M71.4603729,38.2599857 C71.4603729,57.1013525 56.3877001,72.3757682 37.7951881,72.3757682 C19.2016217,72.3757682 4.12894891,57.1013525 4.12894891,38.2599857 C4.12894891,19.4186188 19.2016217,4.14420309 37.7951881,4.14420309 C56.3877001,4.14420309 71.4603729,19.4186188 71.4603729,38.2599857 Z" id="Stroke-6" stroke="#4F4F4F" stroke-width="0.25"></path>
                        </g>
                        <g id="logo" transform="translate(15.000000, 15.000000)">
                            <path d="M32.7125283,31.7082538 C34.144707,31.6815272 35.8503291,29.9191465 35.8503291,28.2510949 L35.8503291,27.7747333 C35.8503291,25.1508141 34.0026977,24 31.5764541,24 L23,24 L23,38 L27.573001,38 L27.573001,32.3434026 L27.9990288,32.3434026 C29.922197,32.3434026 31.3438006,38 32.2865005,38 L37,38 C36.8443941,37.3648512 35.5904824,35.1921392 35.2037337,34.4768108 C34.0676594,32.4235823 34.0812561,33.0194273 32.7125283,31.7082538 M27.4672494,26.820438 L27.4672494,29.5764177 C30.0037768,29.7069062 31.467681,29.3453116 31.3619294,28.273105 C31.5855185,26.9996631 29.9493903,26.6915216 27.4672494,26.820438" id="Fill-1" fill="#060E9F"></path>
                            <path d="M11.2951333,27.116811 L19.8579907,27.116811 L19.8579907,24.4710193 C19.8579907,24.1165889 19.7552606,24 19.4319629,24 L6.43962447,24 C6.10273012,24 6,24.1165889 6,24.4710193 L6,38 L20,38 L20,34.7370642 L11.2951333,34.7370642 L11.2951333,32.092827 L19.1464336,32.092827 L19.1464336,29.1330224 L11.2951333,29.1330224 L11.2951333,27.116811 Z" id="Fill-3" fill="#060E9F"></path>
                            <path d="M14.0904829,22 C17.4557942,22 20,19.8505925 20,16.5197321 L20,8 L15.3816636,8 L15.3816636,16.5197321 C15.3816636,17.6377125 14.5468222,18.6821226 13.5028889,18.6821226 L12.4986373,18.6821226 C11.2852938,18.6821226 10.6198626,17.6377125 10.6198626,16.374034 L10.6198626,8 L6,8 L6,16.9452859 C6,20.0453375 8.92270795,22 12.2117083,22 L14.0904829,22 Z" id="Fill-5" fill="#060E9F"></path>
                            <path d="M23.8521476,11.2104619 L30.9956831,11.2104619 C30.1284265,12.614561 23,19.3658611 23,20.0877944 L23,22.5365555 C23,22.8975222 23.1027412,23 23.4260738,23 L37,23 L37,19.4821046 L28.8622923,19.4821046 C29.7159508,18.1040073 36.7159508,11.4674212 36.7159508,10.7592536 L36.7159508,8 L23.8521476,8 L23.8521476,11.2104619 Z" id="Fill-7" fill="#060E9F"></path>
                            <g id="Group-11" transform="translate(6.000000, 38.000000)">
                                <mask id="mask-2" fill="white">
                                    <use xlink:href="#path-1"></use>
                                </mask>
                                <g id="Clip-10"></g>
                                <path d="M0.795666667,0.38544 C3.81152381,3.01604 8.7582381,6.00084 14.3367619,6.00084 L16.8477619,6.00084 C22.3997143,6.00084 27.3980952,3.00344 30.387381,0.38544 L0.795666667,0.38544 Z" id="Fill-9" fill="#060E9F" mask="url(#mask-2)"></path>
                            </g>
                            <g id="Group-14" transform="translate(8.000000, 0.000000)">
                                <mask id="mask-4" fill="white">
                                    <use xlink:href="#path-3"></use>
                                </mask>
                                <g id="Clip-13"></g>
                                <path d="M0.0480882353,5.82822 L29.2510294,5.82822 C25.5436765,2.58582 20.8657353,0.22682 13.9525,0.22542 C9.3275,0.22542 1.88485294,3.31662 0.0480882353,5.82822" id="Fill-12" fill="#060E9F" mask="url(#mask-4)"></path>
                            </g>
                            <g id="Group-17" transform="translate(38.000000, 8.000000)">
                                <mask id="mask-6" fill="white">
                                    <use xlink:href="#path-5"></use>
                                </mask>
                                <g id="Clip-16"></g>
                                <path d="M0.34034,28.8394747 C1.35814,28.0866465 3.47634,24.3986667 4.05034,22.9794242 C4.76854,21.2277071 5.77374,17.5499798 5.77374,15.0703333 L5.77374,14.1812929 C5.77374,11.2681111 4.87634,7.9990202 4.05034,5.97634343 C3.42874,4.43260606 1.45334,0.940888889 0.34034,0.114828283 L0.34034,28.8394747 Z" id="Fill-15" fill="#060E9F" mask="url(#mask-6)"></path>
                            </g>
                            <g id="Group-20" transform="translate(0.000000, 8.000000)">
                                <mask id="mask-8" fill="white">
                                    <use xlink:href="#path-7"></use>
                                </mask>
                                <g id="Clip-19"></g>
                                <path d="M-0.00015,14.326757 C-0.00015,17.7753019 0.79485,20.2879192 1.73085,22.7723549 C2.29485,24.2986141 4.53885,28.0838557 5.68035,28.8729422 L5.68035,0.0816705467 C2.96235,1.98170758 -0.00015,9.24070935 -0.00015,14.326757" id="Fill-18" fill="#060E9F" mask="url(#mask-8)"></path>
                            </g>
                        </g>
                    </g>
                </g>
            </g>
        </g>
    </g>
</svg>