<?xml version="1.0" encoding="UTF-8"?>
<svg width="20px" height="23px" viewBox="0 0 20 23" version="1.1" xmlns="http://www.w3.org/2000/svg" xmlns:xlink="http://www.w3.org/1999/xlink">
    <!-- Generator: Sketch 50.2 (55047) - http://www.bohemiancoding.com/sketch -->
    <title>vcf</title>
    <desc>Created with Sketch.</desc>
    <defs></defs>
    <g id="contact" stroke="none" stroke-width="1" fill="none" fill-rule="evenodd">
        <g id="CONTACT--2" transform="translate(-198.000000, -1829.000000)" fill="#060E9F" fill-rule="nonzero">
            <g id="satış-ekibi" transform="translate(154.000000, 1541.000000)">
                <g id="kart1">
                    <g id="vcf" transform="translate(44.000000, 288.000000)">
                        <path d="M18.7343508,7.94857718 L18.1920592,7.94857718 L18.1920592,5.3738698 C18.1920592,5.35769833 18.1895055,5.34164846 18.1873225,5.32523382 C18.1864575,5.22301722 18.1533417,5.12258393 18.0822087,5.04314517 L13.7281004,0.149028729 C13.7267412,0.14765071 13.7254644,0.14724541 13.7245994,0.145988981 C13.6986504,0.117455877 13.6684179,0.0936242494 13.6363318,0.0731971404 C13.6268996,0.0668339339 13.6173438,0.0616055667 13.6074173,0.0562150796 C13.5797384,0.0414216376 13.5502884,0.0289789343 13.5200559,0.0200218092 C13.5118181,0.0179142503 13.5044453,0.0145907921 13.4962899,0.0124021733 C13.4633801,0.00478253742 13.4292346,0 13.3946772,0 L2.69362336,0 C2.20500073,0 1.80802316,0.391073759 1.80802316,0.871475589 L1.80802316,7.94853666 L1.26581392,7.94853666 C0.566798951,7.94853666 0,8.50606703 0,9.19402288 L0,15.6711187 C0,16.3587503 0.566798951,16.9168481 1.26581392,16.9168481 L1.80802316,16.9168481 L1.80802316,21.3507872 C1.80802316,21.8312295 2.20500073,22.2222222 2.69362336,22.2222222 L17.3064178,22.2222222 C17.7946286,22.2222222 18.192018,21.8312295 18.192018,21.3507872 L18.192018,16.9168886 L18.7343096,16.9168886 C19.4331187,16.9168886 20,16.359034 20,15.6713619 L20,9.19438765 C20.0000412,8.50610756 19.4331599,7.94857718 18.7343508,7.94857718 Z M2.69362336,0.871475589 L12.9518565,0.871475589 L12.9518565,5.33001636 C12.9518565,5.57076443 13.1502629,5.76575415 13.3946772,5.76575415 L17.306459,5.76575415 L17.306459,7.9487393 L2.69362336,7.9487393 L2.69362336,0.871475589 Z M11.6599289,14.3569341 C12.070128,14.3569341 12.5239461,14.2697136 12.7909731,14.1640114 L12.9955166,15.2069288 C12.7464068,15.3296536 12.1853743,15.4609302 11.4556325,15.4609302 C9.38033524,15.4609302 8.31202157,14.1903154 8.31202157,12.5082808 C8.31202157,10.4930087 9.77224658,9.37138207 11.5892489,9.37138207 C12.2923004,9.37138207 12.8268485,9.51145367 13.0668556,9.63389473 L12.791385,10.6943211 C12.5150905,10.5803913 12.1323643,10.4756213 11.6516911,10.4756213 C10.5742747,10.4756213 9.73740086,11.1153465 9.73740086,12.4291257 C9.73698898,13.6122769 10.4493079,14.3569341 11.6599289,14.3569341 Z M2.48734989,9.467965 L3.97492426,9.467965 L4.70466607,11.9648548 C4.90974506,12.6657397 5.09657742,13.3403612 5.23917301,14.0765478 L5.26578097,14.0765478 C5.41723215,13.3663409 5.60385857,12.6655371 5.80893756,11.9912804 L6.57496669,9.46800553 L8.01715101,9.467965 L5.99568753,15.3731018 L4.4109488,15.3731018 L2.48734989,9.467965 Z M17.306459,21.1145785 L2.69362336,21.1145785 L2.69362336,16.9168886 L17.306459,16.9168886 L17.306459,21.1145785 Z M17.5556924,10.5629634 L15.249532,10.5629634 L15.249532,11.9121659 L17.4045295,11.9121659 L17.4045295,12.9988962 L15.249532,12.9988962 L15.249532,15.3730612 L13.8875834,15.3730612 L13.8875834,9.467965 L17.5557336,9.467965 L17.5557336,10.5629634 L17.5556924,10.5629634 Z" id="Shape"></path>
                    </g>
                </g>
            </g>
        </g>
    </g>
</svg>